<?xml version="1.0" encoding="UTF-8"?>
<svg width="100%" viewBox="0 0 680 620" role="img" style="max-width: 680px; display: block; margin-inline: auto;">
  <title>Transformer residual stream diagram</title>
  <desc>A modern decoder-only transformer shown as a residual stream: tokens flow as columns, each layer adds attention and MLP results into the stream via addition.</desc>
  <defs>
    <marker id="arrow" viewBox="0 0 10 10" refX="8" refY="5" markerWidth="6" markerHeight="6" orient="auto-start-reverse">
      <path d="M2 1L8 5L2 9" fill="none" stroke="context-stroke" stroke-width="1.5" stroke-linecap="round" stroke-linejoin="round"></path>
    </marker>
  <mask id="imagine-text-gaps-xh1hcg" maskUnits="userSpaceOnUse"><rect x="0" y="0" width="680" height="620" fill="white"></rect><rect x="101.671875" y="21" width="29.20703125" height="23" fill="black" rx="2"></rect><rect x="202.5234375" y="21" width="27.890625" height="23" fill="black" rx="2"></rect><rect x="302.796875" y="21" width="27.34375" height="23" fill="black" rx="2"></rect><rect x="403.734375" y="21" width="24.53125" height="23" fill="black" rx="2"></rect><rect x="499.609375" y="21" width="33.7080078125" height="23" fill="black" rx="2"></rect><rect x="101.484375" y="90" width="29.23828125" height="20" fill="black" rx="2"></rect><rect x="201.484375" y="90" width="29.23828125" height="20" fill="black" rx="2"></rect><rect x="301.484375" y="90" width="29.23828125" height="20" fill="black" rx="2"></rect><rect x="401.484375" y="90" width="29.23828125" height="20" fill="black" rx="2"></rect><rect x="501.484375" y="90" width="29.23828125" height="20" fill="black" rx="2"></rect><rect x="107.890625" y="133" width="16.21875" height="20" fill="black" rx="2"></rect><rect x="207.890625" y="133" width="16.21875" height="20" fill="black" rx="2"></rect><rect x="307.890625" y="133" width="16.21875" height="20" fill="black" rx="2"></rect><rect x="407.890625" y="133" width="16.21875" height="20" fill="black" rx="2"></rect><rect x="507.890625" y="133" width="16.21875" height="20" fill="black" rx="2"></rect><rect x="100.421875" y="166" width="31.423828125" height="20" fill="black" rx="2"></rect><rect x="200.421875" y="166" width="31.423828125" height="20" fill="black" rx="2"></rect><rect x="300.421875" y="166" width="31.423828125" height="20" fill="black" rx="2"></rect><rect x="400.421875" y="166" width="31.423828125" height="20" fill="black" rx="2"></rect><rect x="500.421875" y="166" width="31.423828125" height="20" fill="black" rx="2"></rect><rect x="107.890625" y="208" width="16.21875" height="20" fill="black" rx="2"></rect><rect x="207.890625" y="208" width="16.21875" height="20" fill="black" rx="2"></rect><rect x="307.890625" y="208" width="16.21875" height="20" fill="black" rx="2"></rect><rect x="407.890625" y="208" width="16.21875" height="20" fill="black" rx="2"></rect><rect x="507.890625" y="208" width="16.21875" height="20" fill="black" rx="2"></rect><rect x="596" y="130" width="43.03125" height="20" fill="black" rx="2"></rect><rect x="101.484375" y="242" width="29.23828125" height="20" fill="black" rx="2"></rect><rect x="201.484375" y="242" width="29.23828125" height="20" fill="black" rx="2"></rect><rect x="301.484375" y="242" width="29.23828125" height="20" fill="black" rx="2"></rect><rect x="401.484375" y="242" width="29.23828125" height="20" fill="black" rx="2"></rect><rect x="501.484375" y="242" width="29.23828125" height="20" fill="black" rx="2"></rect><rect x="107.890625" y="285" width="16.21875" height="20" fill="black" rx="2"></rect><rect x="207.890625" y="285" width="16.21875" height="20" fill="black" rx="2"></rect><rect x="307.890625" y="285" width="16.21875" height="20" fill="black" rx="2"></rect><rect x="407.890625" y="285" width="16.21875" height="20" fill="black" rx="2"></rect><rect x="507.890625" y="285" width="16.21875" height="20" fill="black" rx="2"></rect><rect x="100.421875" y="318" width="31.423828125" height="20" fill="black" rx="2"></rect><rect x="200.421875" y="318" width="31.423828125" height="20" fill="black" rx="2"></rect><rect x="300.421875" y="318" width="31.423828125" height="20" fill="black" rx="2"></rect><rect x="400.421875" y="318" width="31.423828125" height="20" fill="black" rx="2"></rect><rect x="500.421875" y="318" width="31.423828125" height="20" fill="black" rx="2"></rect><rect x="107.890625" y="360" width="16.21875" height="20" fill="black" rx="2"></rect><rect x="207.890625" y="360" width="16.21875" height="20" fill="black" rx="2"></rect><rect x="307.890625" y="360" width="16.21875" height="20" fill="black" rx="2"></rect><rect x="407.890625" y="360" width="16.21875" height="20" fill="black" rx="2"></rect><rect x="507.890625" y="360" width="16.21875" height="20" fill="black" rx="2"></rect><rect x="596" y="282" width="43.552734375" height="20" fill="black" rx="2"></rect><rect x="110" y="385" width="12" height="20" fill="black" rx="2"></rect><rect x="210" y="385" width="12" height="20" fill="black" rx="2"></rect><rect x="310" y="385" width="12" height="20" fill="black" rx="2"></rect><rect x="410" y="385" width="12" height="20" fill="black" rx="2"></rect><rect x="510" y="385" width="12" height="20" fill="black" rx="2"></rect><rect x="596" y="390" width="45.552734375" height="20" fill="black" rx="2"></rect><rect x="486.703125" y="501" width="58.59375" height="20" fill="black" rx="2"></rect><rect x="104" y="565" width="56.30859375" height="20" fill="black" rx="2"></rect><rect x="216" y="565" width="31.423828125" height="20" fill="black" rx="2"></rect><rect x="286" y="565" width="86.265625" height="20" fill="black" rx="2"></rect><rect x="426" y="565" width="128" height="20" fill="black" rx="2"></rect></mask></defs>

  <!-- Token column backgrounds -->
  <rect x="88" y="50" width="56" height="500" rx="6" fill="var(--color-background-secondary)" opacity="0.5"></rect>
  <rect x="188" y="50" width="56" height="500" rx="6" fill="var(--color-background-secondary)" opacity="0.5"></rect>
  <rect x="288" y="50" width="56" height="500" rx="6" fill="var(--color-background-secondary)" opacity="0.5"></rect>
  <rect x="388" y="50" width="56" height="500" rx="6" fill="var(--color-background-secondary)" opacity="0.5"></rect>
  <rect x="488" y="50" width="56" height="500" rx="6" fill="var(--color-background-secondary)" opacity="0.5"></rect>

  <!-- Column headers (token labels) -->
  <text class="th" x="116" y="38" text-anchor="middle">the</text>
  <text class="th" x="216" y="38" text-anchor="middle">cat</text>
  <text class="th" x="316" y="38" text-anchor="middle">sat</text>
  <text class="th" x="416" y="38" text-anchor="middle">on</text>
  <text class="th" x="516" y="38" text-anchor="middle">mat</text>

  <!-- ── Layer 1 ── -->
  <!-- Attn block row -->
  <g class="node c-purple" onclick="sendPrompt(&#39;What does the attention layer do to the residual stream?&#39;)">
    <rect x="90" y="80" width="52" height="34" rx="5" stroke-width="0.5"></rect>
    <text class="ts" x="116" y="100" text-anchor="middle" dominant-baseline="central">attn</text>
  </g>
  <g class="node c-purple" onclick="sendPrompt(&#39;What does the attention layer do to the residual stream?&#39;)">
    <rect x="190" y="80" width="52" height="34" rx="5" stroke-width="0.5"></rect>
    <text class="ts" x="216" y="100" text-anchor="middle" dominant-baseline="central">attn</text>
  </g>
  <g class="node c-purple" onclick="sendPrompt(&#39;What does the attention layer do to the residual stream?&#39;)">
    <rect x="290" y="80" width="52" height="34" rx="5" stroke-width="0.5"></rect>
    <text class="ts" x="316" y="100" text-anchor="middle" dominant-baseline="central">attn</text>
  </g>
  <g class="node c-purple" onclick="sendPrompt(&#39;What does the attention layer do to the residual stream?&#39;)">
    <rect x="390" y="80" width="52" height="34" rx="5" stroke-width="0.5"></rect>
    <text class="ts" x="416" y="100" text-anchor="middle" dominant-baseline="central">attn</text>
  </g>
  <g class="node c-purple" onclick="sendPrompt(&#39;What does the attention layer do to the residual stream?&#39;)">
    <rect x="490" y="80" width="52" height="34" rx="5" stroke-width="0.5"></rect>
    <text class="ts" x="516" y="100" text-anchor="middle" dominant-baseline="central">attn</text>
  </g>

  <!-- Attention lines between tokens (layer 1) -->
  <line x1="142" y1="97" x2="190" y2="97" stroke="#7F77DD" stroke-width="1.5" opacity="0.35"></line>
  <line x1="142" y1="97" x2="290" y2="97" stroke="#7F77DD" stroke-width="3" opacity="0.8" mask="url(#imagine-text-gaps-xh1hcg)"></line>
  <line x1="142" y1="97" x2="390" y2="97" stroke="#7F77DD" stroke-width="1" opacity="0.2" mask="url(#imagine-text-gaps-xh1hcg)"></line>

  <!-- Add arrows (attn → stream) -->
  <line x1="116" y1="114" x2="116" y2="128" class="arr" stroke="var(--color-text-tertiary)" marker-end="url(#arrow)"></line>
  <line x1="216" y1="114" x2="216" y2="128" class="arr" stroke="var(--color-text-tertiary)" marker-end="url(#arrow)"></line>
  <line x1="316" y1="114" x2="316" y2="128" class="arr" stroke="var(--color-text-tertiary)" marker-end="url(#arrow)"></line>
  <line x1="416" y1="114" x2="416" y2="128" class="arr" stroke="var(--color-text-tertiary)" marker-end="url(#arrow)"></line>
  <line x1="516" y1="114" x2="516" y2="128" class="arr" stroke="var(--color-text-tertiary)" marker-end="url(#arrow)"></line>

  <!-- Plus symbols -->
  <text class="ts" x="116" y="143" text-anchor="middle" dominant-baseline="central">+</text>
  <text class="ts" x="216" y="143" text-anchor="middle" dominant-baseline="central">+</text>
  <text class="ts" x="316" y="143" text-anchor="middle" dominant-baseline="central">+</text>
  <text class="ts" x="416" y="143" text-anchor="middle" dominant-baseline="central">+</text>
  <text class="ts" x="516" y="143" text-anchor="middle" dominant-baseline="central">+</text>

  <!-- MLP block row (layer 1) -->
  <g class="node c-teal" onclick="sendPrompt(&#39;What does the MLP layer do in a transformer?&#39;)">
    <rect x="90" y="156" width="52" height="34" rx="5" stroke-width="0.5"></rect>
    <text class="ts" x="116" y="176" text-anchor="middle" dominant-baseline="central">MLP</text>
  </g>
  <g class="node c-teal" onclick="sendPrompt(&#39;What does the MLP layer do in a transformer?&#39;)">
    <rect x="190" y="156" width="52" height="34" rx="5" stroke-width="0.5"></rect>
    <text class="ts" x="216" y="176" text-anchor="middle" dominant-baseline="central">MLP</text>
  </g>
  <g class="node c-teal" onclick="sendPrompt(&#39;What does the MLP layer do in a transformer?&#39;)">
    <rect x="290" y="156" width="52" height="34" rx="5" stroke-width="0.5"></rect>
    <text class="ts" x="316" y="176" text-anchor="middle" dominant-baseline="central">MLP</text>
  </g>
  <g class="node c-teal" onclick="sendPrompt(&#39;What does the MLP layer do in a transformer?&#39;)">
    <rect x="390" y="156" width="52" height="34" rx="5" stroke-width="0.5"></rect>
    <text class="ts" x="416" y="176" text-anchor="middle" dominant-baseline="central">MLP</text>
  </g>
  <g class="node c-teal" onclick="sendPrompt(&#39;What does the MLP layer do in a transformer?&#39;)">
    <rect x="490" y="156" width="52" height="34" rx="5" stroke-width="0.5"></rect>
    <text class="ts" x="516" y="176" text-anchor="middle" dominant-baseline="central">MLP</text>
  </g>

  <line x1="116" y1="190" x2="116" y2="204" class="arr" stroke="var(--color-text-tertiary)" marker-end="url(#arrow)"></line>
  <line x1="216" y1="190" x2="216" y2="204" class="arr" stroke="var(--color-text-tertiary)" marker-end="url(#arrow)"></line>
  <line x1="316" y1="190" x2="316" y2="204" class="arr" stroke="var(--color-text-tertiary)" marker-end="url(#arrow)"></line>
  <line x1="416" y1="190" x2="416" y2="204" class="arr" stroke="var(--color-text-tertiary)" marker-end="url(#arrow)"></line>
  <line x1="516" y1="190" x2="516" y2="204" class="arr" stroke="var(--color-text-tertiary)" marker-end="url(#arrow)"></line>

  <text class="ts" x="116" y="218" text-anchor="middle" dominant-baseline="central">+</text>
  <text class="ts" x="216" y="218" text-anchor="middle" dominant-baseline="central">+</text>
  <text class="ts" x="316" y="218" text-anchor="middle" dominant-baseline="central">+</text>
  <text class="ts" x="416" y="218" text-anchor="middle" dominant-baseline="central">+</text>
  <text class="ts" x="516" y="218" text-anchor="middle" dominant-baseline="central">+</text>

  <!-- Layer 1 label -->
  <text class="ts" x="600" y="140" dominant-baseline="central">layer 1</text>

  <!-- ── Layer 2 ── -->
  <g class="node c-purple" onclick="sendPrompt(&#39;What does the attention layer do to the residual stream?&#39;)">
    <rect x="90" y="232" width="52" height="34" rx="5" stroke-width="0.5"></rect>
    <text class="ts" x="116" y="252" text-anchor="middle" dominant-baseline="central">attn</text>
  </g>
  <g class="node c-purple" onclick="sendPrompt(&#39;What does the attention layer do to the residual stream?&#39;)">
    <rect x="190" y="232" width="52" height="34" rx="5" stroke-width="0.5"></rect>
    <text class="ts" x="216" y="252" text-anchor="middle" dominant-baseline="central">attn</text>
  </g>
  <g class="node c-purple" onclick="sendPrompt(&#39;What does the attention layer do to the residual stream?&#39;)">
    <rect x="290" y="232" width="52" height="34" rx="5" stroke-width="0.5"></rect>
    <text class="ts" x="316" y="252" text-anchor="middle" dominant-baseline="central">attn</text>
  </g>
  <g class="node c-purple" onclick="sendPrompt(&#39;What does the attention layer do to the residual stream?&#39;)">
    <rect x="390" y="232" width="52" height="34" rx="5" stroke-width="0.5"></rect>
    <text class="ts" x="416" y="252" text-anchor="middle" dominant-baseline="central">attn</text>
  </g>
  <g class="node c-purple" onclick="sendPrompt(&#39;What does the attention layer do to the residual stream?&#39;)">
    <rect x="490" y="232" width="52" height="34" rx="5" stroke-width="0.5"></rect>
    <text class="ts" x="516" y="252" text-anchor="middle" dominant-baseline="central">attn</text>
  </g>

  <line x1="242" y1="249" x2="290" y2="249" stroke="#7F77DD" stroke-width="2.5" opacity="0.7"></line>
  <line x1="342" y1="249" x2="390" y2="249" stroke="#7F77DD" stroke-width="1" opacity="0.25"></line>
  <line x1="342" y1="249" x2="490" y2="249" stroke="#7F77DD" stroke-width="2" opacity="0.5" mask="url(#imagine-text-gaps-xh1hcg)"></line>

  <line x1="116" y1="266" x2="116" y2="280" class="arr" stroke="var(--color-text-tertiary)" marker-end="url(#arrow)"></line>
  <line x1="216" y1="266" x2="216" y2="280" class="arr" stroke="var(--color-text-tertiary)" marker-end="url(#arrow)"></line>
  <line x1="316" y1="266" x2="316" y2="280" class="arr" stroke="var(--color-text-tertiary)" marker-end="url(#arrow)"></line>
  <line x1="416" y1="266" x2="416" y2="280" class="arr" stroke="var(--color-text-tertiary)" marker-end="url(#arrow)"></line>
  <line x1="516" y1="266" x2="516" y2="280" class="arr" stroke="var(--color-text-tertiary)" marker-end="url(#arrow)"></line>

  <text class="ts" x="116" y="295" text-anchor="middle" dominant-baseline="central">+</text>
  <text class="ts" x="216" y="295" text-anchor="middle" dominant-baseline="central">+</text>
  <text class="ts" x="316" y="295" text-anchor="middle" dominant-baseline="central">+</text>
  <text class="ts" x="416" y="295" text-anchor="middle" dominant-baseline="central">+</text>
  <text class="ts" x="516" y="295" text-anchor="middle" dominant-baseline="central">+</text>

  <g class="node c-teal" onclick="sendPrompt(&#39;What does the MLP layer do in a transformer?&#39;)">
    <rect x="90" y="308" width="52" height="34" rx="5" stroke-width="0.5"></rect>
    <text class="ts" x="116" y="328" text-anchor="middle" dominant-baseline="central">MLP</text>
  </g>
  <g class="node c-teal" onclick="sendPrompt(&#39;What does the MLP layer do in a transformer?&#39;)">
    <rect x="190" y="308" width="52" height="34" rx="5" stroke-width="0.5"></rect>
    <text class="ts" x="216" y="328" text-anchor="middle" dominant-baseline="central">MLP</text>
  </g>
  <g class="node c-teal" onclick="sendPrompt(&#39;What does the MLP layer do in a transformer?&#39;)">
    <rect x="290" y="308" width="52" height="34" rx="5" stroke-width="0.5"></rect>
    <text class="ts" x="316" y="328" text-anchor="middle" dominant-baseline="central">MLP</text>
  </g>
  <g class="node c-teal" onclick="sendPrompt(&#39;What does the MLP layer do in a transformer?&#39;)">
    <rect x="390" y="308" width="52" height="34" rx="5" stroke-width="0.5"></rect>
    <text class="ts" x="416" y="328" text-anchor="middle" dominant-baseline="central">MLP</text>
  </g>
  <g class="node c-teal" onclick="sendPrompt(&#39;What does the MLP layer do in a transformer?&#39;)">
    <rect x="490" y="308" width="52" height="34" rx="5" stroke-width="0.5"></rect>
    <text class="ts" x="516" y="328" text-anchor="middle" dominant-baseline="central">MLP</text>
  </g>

  <line x1="116" y1="342" x2="116" y2="356" class="arr" stroke="var(--color-text-tertiary)" marker-end="url(#arrow)"></line>
  <line x1="216" y1="342" x2="216" y2="356" class="arr" stroke="var(--color-text-tertiary)" marker-end="url(#arrow)"></line>
  <line x1="316" y1="342" x2="316" y2="356" class="arr" stroke="var(--color-text-tertiary)" marker-end="url(#arrow)"></line>
  <line x1="416" y1="342" x2="416" y2="356" class="arr" stroke="var(--color-text-tertiary)" marker-end="url(#arrow)"></line>
  <line x1="516" y1="342" x2="516" y2="356" class="arr" stroke="var(--color-text-tertiary)" marker-end="url(#arrow)"></line>

  <text class="ts" x="116" y="370" text-anchor="middle" dominant-baseline="central">+</text>
  <text class="ts" x="216" y="370" text-anchor="middle" dominant-baseline="central">+</text>
  <text class="ts" x="316" y="370" text-anchor="middle" dominant-baseline="central">+</text>
  <text class="ts" x="416" y="370" text-anchor="middle" dominant-baseline="central">+</text>
  <text class="ts" x="516" y="370" text-anchor="middle" dominant-baseline="central">+</text>

  <!-- Layer 2 label -->
  <text class="ts" x="600" y="292" dominant-baseline="central">layer 2</text>

  <!-- Ellipsis for N layers -->
  <text class="ts" x="116" y="400" text-anchor="middle">⋮</text>
  <text class="ts" x="216" y="400" text-anchor="middle">⋮</text>
  <text class="ts" x="316" y="400" text-anchor="middle">⋮</text>
  <text class="ts" x="416" y="400" text-anchor="middle">⋮</text>
  <text class="ts" x="516" y="400" text-anchor="middle">⋮</text>
  <text class="ts" x="600" y="400" dominant-baseline="central">layer N</text>

  <!-- Final residual values (circles = final token vectors) -->
  <circle cx="116" cy="448" r="18" class="c-gray" stroke-width="0.5"></circle>
  <circle cx="216" cy="448" r="18" class="c-gray" stroke-width="0.5"></circle>
  <circle cx="316" cy="448" r="18" class="c-gray" stroke-width="0.5"></circle>
  <circle cx="416" cy="448" r="18" class="c-gray" stroke-width="0.5"></circle>
  <circle cx="516" cy="448" r="18" class="c-gray" stroke-width="0.5"></circle>

  <line x1="116" y1="418" x2="116" y2="430" class="arr" stroke="var(--color-text-tertiary)" marker-end="url(#arrow)"></line>
  <line x1="216" y1="418" x2="216" y2="430" class="arr" stroke="var(--color-text-tertiary)" marker-end="url(#arrow)"></line>
  <line x1="316" y1="418" x2="316" y2="430" class="arr" stroke="var(--color-text-tertiary)" marker-end="url(#arrow)"></line>
  <line x1="416" y1="418" x2="416" y2="430" class="arr" stroke="var(--color-text-tertiary)" marker-end="url(#arrow)"></line>
  <line x1="516" y1="418" x2="516" y2="430" class="arr" stroke="var(--color-text-tertiary)" marker-end="url(#arrow)"></line>

  <!-- Only the last token is unembedded to a prediction -->
  <line x1="516" y1="466" x2="516" y2="490" class="arr" stroke="var(--color-text-tertiary)" marker-end="url(#arrow)"></line>
  <g class="node c-amber" onclick="sendPrompt(&#39;How does the unembedding work in a transformer?&#39;)">
    <rect x="476" y="492" width="80" height="34" rx="6" stroke-width="0.5"></rect>
    <text class="ts" x="516" y="511" text-anchor="middle" dominant-baseline="central">unembed</text>
  </g>

  <!-- Greyed-out indicator that other tokens don't predict -->
  <line x1="116" y1="466" x2="116" y2="485" stroke="var(--color-border-tertiary)" stroke-width="0.5" stroke-dasharray="3 3"></line>
  <line x1="216" y1="466" x2="216" y2="485" stroke="var(--color-border-tertiary)" stroke-width="0.5" stroke-dasharray="3 3"></line>
  <line x1="316" y1="466" x2="316" y2="485" stroke="var(--color-border-tertiary)" stroke-width="0.5" stroke-dasharray="3 3"></line>
  <line x1="416" y1="466" x2="416" y2="485" stroke="var(--color-border-tertiary)" stroke-width="0.5" stroke-dasharray="3 3"></line>

  <!-- Legend -->
  <g class="c-purple"><rect x="88" y="565" width="14" height="14" rx="3" stroke-width="0.5"></rect></g>
  <text class="ts" x="108" y="575" dominant-baseline="central">attention</text>
  <g class="c-teal"><rect x="200" y="565" width="14" height="14" rx="3" stroke-width="0.5"></rect></g>
  <text class="ts" x="220" y="575" dominant-baseline="central">MLP</text>
  <g class="c-gray"><rect x="270" y="565" width="14" height="14" rx="3" stroke-width="0.5"></rect></g>
  <text class="ts" x="290" y="575" dominant-baseline="central">residual vector</text>
  <text class="ts" x="430" y="575" dominant-baseline="central">+ = added into stream</text>
</svg>